<?xml version="1.0" encoding="utf-8"?><!DOCTYPE svg PUBLIC "-//W3C//DTD SVG 1.1//EN" "http://www.w3.org/Graphics/SVG/1.1/DTD/svg11.dtd"><svg version="1.1" id="Layer_1" xmlns="http://www.w3.org/2000/svg" xmlns:xlink="http://www.w3.org/1999/xlink" x="0px" y="0px" width="90.313px" height="90.313px" viewBox="0 0 90.313 90.313" enable-background="new 0 0 90.313 90.313" xml:space="preserve"><g><g><path fill-rule="evenodd" clip-rule="evenodd" fill="#191919" d="M45.156,0C20.218,0,0,20.217,0,45.156c0,24.939,20.218,45.156,45.156,45.156c24.939,0,45.156-20.218,45.156-45.156C90.313,20.217,70.095,0,45.156,0z M22.397,78.753c0,0-5.274-3.54-7.225-5.78c-1.951-2.24-3.974-4.696-3.974-4.696L26.01,58.161l5.78,5.78l0.362,0.361L22.397,78.753z M45.156,63.219c-9.976,0-18.063-8.087-18.063-18.063c0-9.975,8.087-18.063,18.063-18.063c9.975,0,18.063,8.087,18.063,18.063C63.219,55.132,55.132,63.219,45.156,63.219z M64.303,32.513c0,0-0.662-1.204-2.167-2.89c-1.505-1.686-3.974-3.974-3.974-3.974l10.115-14.45c0,0,2.408,1.746,4.696,3.612c2.288,1.867,6.141,7.225,6.141,7.225L64.303,32.513z M45.156,41.182c-2.195,0-3.974,1.779-3.974,3.974c0,2.195,1.779,3.974,3.974,3.974c2.195,0,3.974-1.779,3.974-3.974C49.13,42.961,47.351,41.182,45.156,41.182z"/></g></g></svg>